HIERARCHY
ROOT root     
{
	OFFSET 0.0000 0.0000 0.0000
	CHANNELS 6 Xposition Yposition Zposition Zrotation Yrotation Xrotation
	JOINT pelvis   
	{
		OFFSET 0.0000 0.0000 0.0000
		CHANNELS 3 Zrotation Yrotation Xrotation
		JOINT thorax   
		{
			OFFSET 0.0000 23.0750 -5.0000
			CHANNELS 3 Zrotation Yrotation Xrotation
			JOINT rclavicle
			{
				OFFSET 0.0000 28.0009 0.0000
				CHANNELS 3 Zrotation Yrotation Xrotation
				JOINT rhumerus 
				{
					OFFSET -18.5725 5.5939 0.0000
					CHANNELS 3 Zrotation Yrotation Xrotation
					JOINT rradius  
					{
						OFFSET -24.8459 0.0000 0.0000
						CHANNELS 3 Zrotation Yrotation Xrotation
						JOINT rhand    
						{
							OFFSET -24.5477 0.0000 0.0000
							CHANNELS 3 Zrotation Yrotation Xrotation
							End Site
							{
								OFFSET -8.1826 0.0000 0.0000
							}
						}
					}
				}
			}
			JOINT lclavicle
			{
				OFFSET 0.0000 28.0009 0.0000
				CHANNELS 3 Zrotation Yrotation Xrotation
				JOINT lhumerus 
				{
					OFFSET 18.5725 5.5939 0.0000
					CHANNELS 3 Zrotation Yrotation Xrotation
					JOINT lradius  
					{
						OFFSET 24.8459 0.0000 0.0000
						CHANNELS 3 Zrotation Yrotation Xrotation
						JOINT lhand    
						{
							OFFSET 24.5477 0.0000 0.0000
							CHANNELS 3 Zrotation Yrotation Xrotation
							End Site
							{
								OFFSET 8.1826 0.0000 0.0000
							}
						}
					}
				}
			}
			JOINT head     
			{
				OFFSET 0.0000 35.2030 0.0000
				CHANNELS 3 Zrotation Yrotation Xrotation
				End Site
				{
					OFFSET 0.0000 11.7343 0.0000
				}
			}
		}
		JOINT rfemur   
		{
			OFFSET -8.2817 0.0000 0.0000
			CHANNELS 3 Zrotation Yrotation Xrotation
			JOINT rtibia   
			{
				OFFSET 0.0000 -43.3627 0.0000
				CHANNELS 3 Zrotation Yrotation Xrotation
				JOINT rfoot    
				{
					OFFSET 0.0000 -38.2947 0.0000
					CHANNELS 3 Zrotation Yrotation Xrotation
					JOINT rtoes    
					{
						OFFSET 0.0000 0.0000 16.6054
						CHANNELS 3 Zrotation Yrotation Xrotation
						End Site
						{
							OFFSET 0.0000 0.0000 5.5351
						}
					}
				}
			}
		}
		JOINT lfemur   
		{
			OFFSET 8.2817 0.0000 0.0000
			CHANNELS 3 Zrotation Yrotation Xrotation
			JOINT ltibia   
			{
				OFFSET 0.0000 -43.3627 0.0000
				CHANNELS 3 Zrotation Yrotation Xrotation
				JOINT lfoot    
				{
					OFFSET 0.0000 -38.2947 0.0000
					CHANNELS 3 Zrotation Yrotation Xrotation
					JOINT ltoes    
					{
						OFFSET 0.0000 0.0000 16.6054
						CHANNELS 3 Zrotation Yrotation Xrotation
						End Site
						{
							OFFSET 0.0000 0.0000 5.5351
						}
					}
				}
			}
		}
	}
}
MOTION
Frames: 19
Frame Time: .0333333
36.089 71.612 9.9063 43.8586 -83.9177 -15.2056 0 -0 0 21.3391 -6.11415 11.9759 20.164 -9.37716 -1.71105e-05 55.8885 -4.54985 -6.92551 -1.17538e-06 78.5328 -9.60863e-07 -3.57642 0.960498 -0.0299991 -11.3972 17.6747 2.16588e-05 -46.337 7.80658 12.0881 180 -81.7884 -180 -13.9937 -2.13567 0.26211 5.36842 -6.43129 -22.0329 8.99359 -15.4506 -67.6 -0 -0 75.3932 -4.99681e-05 -11.1413 -22.8691 4.37672 1.77675e-05 -12.8567 3.53863 2.32031 -22.8265 -0 -0 73.6001 4.15623e-05 19.9014 -5.08679 -1.83863 -9.30002e-06 -20.9191 
35.188 71.897 9.7498 44.5357 -83.7515 -15.6021 0 -0 0 21.1229 -5.7511 12.3123 19.7134 -9.06349 5.18594e-05 55.8933 -3.66177 -6.62801 -0 78.7865 -0 -3.64511 0.963903 -0.0307002 -11.5313 17.3202 -5.36009e-05 -47.0565 7.54942 12.6801 180 -82.8131 -180 -13.8923 -2.0069 0.244497 5.44491 -6.73302 -21.5697 8.96414 -15.6337 -66.8753 -0 -0 74.9046 2.85776e-05 -11.2418 -23.2306 4.48275 1.72455e-05 -13.7476 3.23342 2.7167 -25.0368 -0 -0 75.155 4.10525e-05 21.1575 -6.94058 -2.67763 9.35525e-07 -18.1798 
34.293 72.187 9.5995 45.3302 -83.6024 -16.1189 0 -0 0 20.8513 -5.41216 12.6418 19.2144 -8.79449 2.19528e-05 55.8485 -2.78366 -6.19537 -0 79.0789 -0 -3.67472 0.9896 -0.0317001 -11.6365 16.9909 1.47957e-05 -47.7581 7.33697 13.2975 180 -83.8625 -180 -13.8141 -1.8835 0.228195 5.45424 -6.98502 -20.9916 8.9231 -15.8302 -66.1534 -0 -0 74.3829 3.68997e-05 -11.2847 -23.5103 4.55109 4.49084e-06 -14.6111 2.85132 3.07559 -27.3186 -0 -0 76.6122 3.00205e-05 22.1835 -8.587 -3.48411 4.00142e-06 -15.7491 
33.404 72.482 9.4556 46.2184 -83.4582 -16.7178 0 -0 0 20.5309 -5.09817 12.9513 18.6708 -8.5645 -4.98951e-05 55.7474 -1.92435 -5.64313 -1.78688e-06 79.4101 -1.48374e-06 -3.66317 1.0378 -0.0331996 -11.7179 16.6859 0.000162126 -48.4358 7.20086 13.9221 180 -84.8807 -180 -13.7615 -1.76015 0.212401 5.39325 -7.18624 -20.3124 8.87168 -16.0309 -65.4459 -0 -0 73.8372 6.24167e-06 -11.2601 -23.6978 4.57491 1.39974e-05 -15.5005 2.39515 3.38962 -29.6745 -0 -0 77.9629 -7.65359e-05 22.9822 -10.0501 -4.23272 1.80615e-05 -13.4082 
32.52 72.779 9.3185 47.2267 -83.3329 -17.4272 0 -0 0 20.1651 -4.80912 13.2519 18.0899 -8.37447 2.2951e-05 55.5892 -1.08028 -4.98877 -0 79.789 -0 -3.61105 1.10581 -0.0348995 -11.7757 16.4202 5.19309e-06 -49.0921 7.14081 14.5467 180 -85.9017 -180 -13.7378 -1.64424 0.198101 5.26438 -7.33821 -19.5645 8.80503 -16.226 -64.7506 -0 -0 73.2782 -3.50814e-05 -11.1583 -23.8053 4.55209 6.61147e-06 -16.3807 1.8682 3.66028 -32.0926 -0 -0 79.2005 -0.000100197 23.5628 -11.3345 -4.89884 7.15785e-06 -11.2262 
31.637 73.079 9.1882 48.3187 -83.2323 -18.212 0 -0 0 19.7592 -4.54169 13.5488 17.4776 -8.22158 -1.98298e-05 55.3729 -0.255838 -4.25613 2.29336e-06 80.2388 2.72178e-06 -3.52028 1.19247 -0.0366001 -11.8108 16.2008 -5.81028e-05 -49.7261 7.15971 15.1606 180 -86.8862 -180 -13.744 -1.53865 0.185485 5.0724 -7.44466 -18.7769 8.7265 -16.412 -64.0666 -0 -0 72.7082 -5.92815e-05 -10.9777 -23.8422 4.48351 -2.1887e-05 -17.2732 1.27717 3.89283 -34.5672 -0 -0 80.3157 -1.17357e-06 23.943 -12.4613 -5.47297 -3.67495e-07 -9.15911 
30.756 73.38 9.0646 49.5364 -83.1474 -19.1078 0 -0 0 19.3188 -4.29216 13.846 16.842 -8.09784 -2.94873e-05 55.0992 0.537531 -3.4737 0 80.7517 0 -3.39704 1.29641 -0.0383994 -11.8294 16.0264 1.00151e-05 -50.3361 7.26519 15.7532 180 -87.8364 -180 -13.7817 -1.44325 0.174393 4.82668 -7.51011 -17.9839 8.63592 -16.582 -63.394 -0 -0 72.132 1.71165e-05 -10.7223 -23.82 4.37306 1.02029e-05 -18.2204 0.626834 4.09608 -37.0941 -0 -0 81.3058 3.99649e-05 24.1501 -13.4601 -5.95816 -4.4426e-06 -7.19761 
29.874 73.682 8.9456 50.8092 -83.1104 -20.0603 0 -0 0 18.8543 -4.05092 14.1577 16.1877 -8.00791 -3.61705e-05 54.7685 1.30138 -2.66732 0 81.3528 0 -3.24987 1.41295 -0.0400996 -11.8344 15.9126 -8.77108e-05 -50.9187 7.43321 16.3306 180 -88.7585 -180 -13.8471 -1.36625 0.165909 4.53674 -7.54409 -17.2195 8.54308 -16.734 -62.7204 -0 -0 71.5439 2.83864e-05 -10.4032 -23.7568 4.22987 -1.2062e-05 -19.2109 -0.0696444 4.28453 -39.6619 -0 -0 82.1657 -5.88517e-06 24.2124 -14.3166 -6.34522 -9.31033e-06 -5.58088 
28.991 73.986 8.8311 52.1817 -83.1048 -21.105 0 -0 0 18.3667 -3.81104 14.4865 15.5213 -7.943 1.86723e-05 54.38 2.01941 -1.86758 0 82.0477 0 -3.08942 1.53926 -0.0415002 -11.8315 15.8508 -2.51707e-06 -51.4665 7.66627 16.8847 180 -89.6868 -180 -13.9348 -1.30537 0.159494 4.21736 -7.55357 -16.5076 8.4496 -16.8657 -62.0457 -0 -0 70.9382 3.23177e-05 -10.0347 -23.6597 4.0618 -1.22116e-05 -20.3027 -0.811499 4.46772 -42.2677 -0 -0 82.8919 -4.90846e-06 24.1667 -15.0599 -6.65023 -1.15371e-06 -4.18954 
28.102 74.29 8.7198 53.6435 -83.142 -22.2433 0 -0 0 17.8636 -3.56487 14.8399 14.8509 -7.90069 2.90744e-05 53.9346 2.68208 -1.10043 -2.57065e-06 82.8475 -2.26821e-06 -2.92973 1.66958 -0.0426994 -11.8287 15.8428 -8.18076e-05 -51.9743 7.95337 17.4183 -3.15308e-05 -89.513 3.2075e-05 -14.0409 -1.26177 0.155395 3.88169 -7.54692 -15.8673 8.36042 -16.9785 -61.3566 -0 -0 70.3093 -3.55064e-05 -9.63479 -23.5374 3.8784 5.04982e-06 -21.5157 -1.59386 4.6565 -44.8994 -0 -0 83.4771 -0.000150078 24.0479 -15.6949 -6.88277 -5.48275e-06 -3.06514 
27.206 74.594 8.6106 55.1939 -83.2079 -23.4713 0 -0 0 17.3474 -3.30431 15.2213 14.1836 -7.87794 1.40265e-05 53.4317 3.27908 -0.388921 -2.53072e-06 83.7522 -2.2689e-06 -2.78452 1.79725 -0.0436992 -11.8293 15.8835 3.78289e-05 -52.4358 8.28472 17.9329 9.79892e-06 -88.7463 -9.5855e-06 -14.1584 -1.23467 0.153296 3.54393 -7.53197 -15.3105 8.27797 -17.0711 -60.645 -0 -0 69.6481 -5.96277e-05 -9.2212 -23.3953 3.68835 -1.8496e-05 -22.8506 -2.41609 4.85766 -47.545 -0 -0 83.9135 -4.40528e-05 23.8861 -16.2238 -7.05312 3.36899e-06 -2.22627 
26.3 74.898 8.5036 56.8689 -83.3107 -24.8352 0 -0 0 16.8193 -3.0239 15.6325 13.5288 -7.87153 3.55022e-06 52.8644 3.79956 0.247874 3.15715e-06 84.7693 3.45932e-06 -2.66733 1.91417 -0.0445997 -11.8399 15.9674 -1.028e-05 -52.8453 8.65286 18.4317 -5.41498e-06 -87.9994 5.98462e-06 -14.2808 -1.22222 0.153106 3.21789 -7.51478 -14.8376 8.20159 -17.1467 -59.902 -0 -0 68.951 5.38287e-06 -8.80898 -23.2348 3.49842 -2.94306e-05 -24.304 -3.28085 5.07198 -50.1865 -0 -0 84.1874 7.57415e-05 23.7099 -16.6488 -7.1716 5.65211e-07 -1.65398 
25.379 75.201 8.3979 58.6418 -83.4528 -26.3172 0 -0 0 16.2818 -2.71884 16.0752 12.894 -7.8808 -8.25975e-06 52.2325 4.23659 0.797598 2.02789e-06 85.896 2.17889e-06 -2.58844 2.01262 -0.0455012 -11.8638 16.0887 -3.18882e-05 -53.1974 9.05072 18.9131 0 -87.2885 0 -14.402 -1.22171 0.154402 2.9129 -7.50073 -14.4424 8.13312 -17.2072 -59.1196 -0 -0 68.2143 6.03105e-05 -8.41152 -23.0561 3.31448 8.34822e-06 -25.836 -4.18604 5.29765 -52.8042 -0 -0 84.2865 -1.99707e-05 23.5338 -16.9678 -7.24342 -7.81996e-07 -1.37812 
24.439 75.5 8.2938 60.5466 -83.6072 -27.9465 0 -0 0 15.7372 -2.3882 16.5437 12.2888 -7.90471 -8.29563e-06 51.5278 4.58491 1.25311 0 87.0991 0 -2.55512 2.08506 -0.0464973 -11.9032 16.2418 8.13654e-05 -53.4915 9.47199 19.3821 -1.6503e-06 -86.6011 2.2432e-06 -14.5154 -1.22883 0.156502 2.63783 -7.49142 -14.115 8.06636 -17.2537 -58.285 -0 -0 67.438 -5.39642e-05 -8.03611 -22.8526 3.13844 -3.6502e-06 -27.4261 -5.13218 5.52587 -55.3731 -0 -0 84.1942 -0.000158345 23.367 -17.1894 -7.27631 5.33195e-07 -1.30729 
23.477 75.795 8.1915 62.572 -83.7901 -29.7275 0 -0 0 15.1848 -2.03235 17.0331 11.7221 -7.94259 -3.72019e-05 50.7483 4.8418 1.61255 3.10268e-06 88.4078 3.69867e-06 -2.56997 2.12664 -0.0477001 -11.962 16.4218 -3.87117e-05 -53.7262 9.91452 19.8386 4.43138e-06 -85.9656 -4.12938e-06 -14.617 -1.23836 0.15879 2.3978 -7.48708 -13.8383 7.99833 -17.2892 -57.3982 -0 -0 66.6244 3.10772e-05 -7.68539 -22.6218 2.97128 -1.90388e-05 -29.041 -6.11593 5.74496 -57.8722 -0 -0 83.8928 6.37339e-05 23.203 -17.3229 -7.27384 -3.00762e-06 -1.36273 
22.488 76.084 8.0914 64.7112 -83.9898 -31.6511 0 -0 0 14.6297 -1.65277 17.5324 11.2007 -7.99876 4.44014e-06 49.8943 5.01036 1.87972 -0.000188925 89.7438 -0.000188779 -2.63196 2.13245 -0.0490002 -12.0395 16.6233 8.51479e-06 -53.9056 10.3742 20.2803 -1.77992e-06 -85.3346 1.93098e-06 -14.7038 -1.24755 0.161008 2.19407 -7.48801 -13.5955 7.92652 -17.3167 -56.4537 -0 -0 65.7789 -8.00591e-05 -7.35684 -22.3599 2.81195 2.94237e-06 -30.6171 -7.12839 5.94155 -60.2749 -0 -0 83.367 0.000165333 23.0294 -17.3734 -7.23403 3.30168e-06 -1.49697 
21.47 76.363 7.9947 66.9873 -84.1882 -33.7386 0 -0 0 14.0623 -1.26005 18.0306 10.7299 -8.06246 -4.99599e-06 48.9667 5.08433 2.05913 180 88.8427 180 -2.72821 2.10916 -0.050199 -12.1301 16.8391 -5.12054e-05 -54.0381 10.8672 20.6961 3.44435e-06 -84.7395 -3.14214e-06 -14.7733 -1.24371 0.161206 2.03181 -7.48485 -13.3718 7.8395 -17.3395 -55.4527 -0 -0 64.911 2.79118e-05 -7.04539 -22.0573 2.65736 8.23535e-06 -32.2195 -8.16343 6.09711 -62.5604 -0 -0 82.6008 0.000145372 22.822 -17.3194 -7.14082 -4.73149e-07 -1.99051 
20.42 76.632 7.9012 69.3541 -84.3924 -35.9471 0 -0 0 13.4948 -0.855375 18.513 10.3149 -8.14628 -1.0615e-06 47.9708 5.07823 2.16277 -180 87.4319 -180 -2.85385 2.05467 -0.0512002 -12.2343 17.0713 -3.18579e-05 -54.1274 11.3808 21.0906 3.12082e-06 -84.177 -2.81859e-06 -14.8227 -1.22898 0.1599 1.90519 -7.47977 -13.155 7.73858 -17.3583 -54.3979 -0 -0 64.0294 2.00165e-05 -6.7405 -21.7218 2.50469 -1.84439e-05 -33.757 -9.20205 6.20162 -64.7116 -0 -0 81.5851 -8.44247e-05 22.5533 -17.1957 -6.99939 -6.96098e-06 -2.49193 
19.338 76.888 7.8116 71.7512 -84.5922 -38.2109 0 -0 0 12.9245 -0.447675 18.9658 9.9559 -8.2479 1.895e-06 46.9209 4.99585 2.2013 180 85.9921 180 -2.99412 1.97796 -0.0516994 -12.3442 17.3203 8.33394e-06 -54.1853 11.9242 21.457 2.48227e-06 -83.6292 -2.22046e-06 -14.8526 -1.19735 0.156086 1.81398 -7.46718 -12.938 7.61995 -17.3759 -53.2963 -0 -0 63.1406 -2.09302e-06 -6.43244 -21.3529 2.35071 -8.96106e-08 -35.256 -10.2297 6.24337 -66.716 -0 -0 80.314 4.5741e-05 22.1904 -16.9839 -6.79462 -3.16708e-06 -3.17948 
